# xmcd
#
# Track frame offsets: 
#        150
#        22757
#        43427
#        59249
#        77378
#        98405
#        117612
#        135478
#        159703
#        174657
#        194467
#        214390
#
# Disc length: 3246 seconds
#
# Revision: 0
# Processed by: cddbd v1.5.2PL0 Copyright (c) Steve Scherf et al.
# Submitted via: ExactAudioCopy v0.99pb4
#
DISCID=aa0cac0c
DTITLE=Zen Road Pilots - Zen Road Pilots
DYEAR=2011
DGENRE=Psychedelic Rock
TTITLE0=I Don't Need Nobody
TTITLE1=The Muse
TTITLE2=Wildest Dreams
TTITLE3=Possibilities For Joy
TTITLE4=Is What Is
TTITLE5=Goin' Home (Buddy's Song"
TTITLE6=Broken Mirror
TTITLE7=Tell The Truth
TTITLE8=What A Blind Man Can See
TTITLE9=God's Face
TTITLE10=Hey Marty
TTITLE11=Take The Fall
EXTD=
EXTT0=
EXTT1=
EXTT2=
EXTT3=
EXTT4=
EXTT5=
EXTT6=
EXTT7=
EXTT8=
EXTT9=
EXTT10=
EXTT11=
PLAYORDER=
